<?xml version="1.0" encoding="iso-8859-1"?>
<!-- Uploaded to: SVG Repo, www.svgrepo.com, Generator: SVG Repo Mixer Tools -->
<!DOCTYPE svg PUBLIC "-//W3C//DTD SVG 1.1//EN" "http://www.w3.org/Graphics/SVG/1.1/DTD/svg11.dtd">
<svg fill="#000000" version="1.1" id="Capa_1" xmlns="http://www.w3.org/2000/svg" xmlns:xlink="http://www.w3.org/1999/xlink" 
	 width="800px" height="800px" viewBox="0 0 477.935 477.935"
	 xml:space="preserve">
<g>
	<g>
		<path d="M444.996,11.214c-16.098-0.21-17.48-5.744-17.48-5.744c-14.459,27.916-65.521,52.441-65.521,52.441
			c12.15,15.164,0.749,29.643,0.749,29.643l-59.29,62.772l-1.635-1.633c-14.587,7.147-29.747,3.43-29.747,3.43
			S102.086,200.85,46.035,228.305c-56.054,27.446-45.186,45.18-45.186,45.18c66.341-44.038,110.729,16.823,127.023,19.965
			c16.298,3.149,15.731-7.723,8.582-7.438c-7.151,0.292-26.597-8.28-10.582-15.148c16.014-6.869,43.759,15.148,52.9,12.864
			c9.147-2.301,0-6.288,0-6.288s-23.163-3.723-18.296-18.306c4.42-13.257,36.889,6.416,42.753,10.103
			c3.683,5.858,23.355,38.335,10.097,42.751c-14.587,4.857-18.3-18.302-18.3-18.302s-4.005-9.153-6.292,0
			c-2.284,9.153,19.739,36.893,12.87,52.906c-6.863,16.014-15.441-3.435-15.162-10.58c0.285-7.161-10.58-7.726-7.432,8.572
			c3.148,16.314,64.003,60.688,19.963,127.031c0,0,17.733,10.872,45.186-45.184c27.454-56.06,76.181-226.037,76.181-226.037
			s-3.719-15.16,3.435-29.745l-0.781-0.779l57.719-61.097c12.046-13.309,38.944-11.151,38.944-11.151
			c31.233-74.161,63.072-75.904,57.675-81.03C471.941,11.453,461.102,11.419,444.996,11.214z"/>
	</g>
</g>
</svg>